<svg id="esbTlMPGIaF1" xmlns="http://www.w3.org/2000/svg" xmlns:xlink="http://www.w3.org/1999/xlink" viewBox="0 0 16 16" shape-rendering="geometricPrecision" text-rendering="geometricPrecision"><path d="M2.46136,8C2.46136,5.08783,4.94109,2.72705,8,2.72705s5.53864,2.36078,5.53864,5.27295-2.47973,5.27295-5.53864,5.27295-5.53864-2.36078-5.53864-5.27295ZM8.32008,9.30853L6.90757,6.55998l.41445-.6023-.84682-.53806-.73806-1.59408L4.4846,5.79088l-.68776.82427-.00875,1.38484-.45958.5934L4.4846,10.93072l2.42297,1.7489.41445-1.43648-.90275-2.64975l1.90081.71514Zm3.71124.2068v-.68217l-.67023,1.32435-.59331,1.2683l1.04971-.49508.21383-1.4154Z" stroke-width="0"/><ellipse rx="7.540868" ry="6.727648" transform="matrix(.970418 0 0 1.056492 8 8)" fill="rgba(210,219,237,0)" stroke="#000" stroke-width="0.7"/></svg>
